<svg xmlns="http://www.w3.org/2000/svg" xmlns:xlink="http://www.w3.org/1999/xlink" xmlns:lucid="lucid" width="1185.43" height="260"><g transform="translate(-20 -20)" lucid:page-tab-id="0_0"><path d="M645.43 46a6 6 0 0 1 6-6h528a6 6 0 0 1 6 6v208a6 6 0 0 1-6 6h-528a6 6 0 0 1-6-6z" stroke="#3a414a" fill="#cfe4ff"/><use xlink:href="#a" transform="matrix(1,0,0,1,650.4330708661416,45) translate(232.34567901234567 208.30052977777777)"/><path d="M40 46a6 6 0 0 1 6-6h528a6 6 0 0 1 6 6v208a6 6 0 0 1-6 6H46a6 6 0 0 1-6-6z" stroke="#3a414a" fill="#ffdda6"/><use xlink:href="#b" transform="matrix(1,0,0,1,45,45) translate(146.23456790123453 208.47031466666667)"/><use xlink:href="#c" transform="matrix(1,0,0,1,45,45) translate(233.70370370370367 208.47031466666667)"/><use xlink:href="#d" transform="matrix(1,0,0,1,45,45) translate(279.25925925925924 208.47031466666667)"/><use xlink:href="#e" transform="matrix(1,0,0,1,45,45) translate(370.4320987654321 208.47031466666667)"/><path d="M340 86a6 6 0 0 1 6-6h188a6 6 0 0 1 6 6v128a6 6 0 0 1-6 6H346a6 6 0 0 1-6-6z" stroke="#3a414a" fill="#fff"/><use xlink:href="#f" transform="matrix(1,0,0,1,345,85) translate(69.10493827160494 54.34027777777778)"/><use xlink:href="#g" transform="matrix(1,0,0,1,345,85) translate(8.333333333333343 85.09583333333333)"/><use xlink:href="#h" transform="matrix(1,0,0,1,345,85) translate(35.000000000000014 85.09583333333333)"/><use xlink:href="#i" transform="matrix(1,0,0,1,345,85) translate(61.66666666666668 85.09583333333333)"/><path d="M720 122.3a6 6 0 0 1 6-6h148a6 6 0 0 1 6 6v55.4a6 6 0 0 1-6 6H726a6 6 0 0 1-6-6z" stroke="#3a414a" fill="#fff"/><use xlink:href="#j" transform="matrix(1,0,0,1,725,121.28888888888889) translate(44.783950617283956 17.77777777777778)"/><use xlink:href="#k" transform="matrix(1,0,0,1,725,121.28888888888889) translate(35 48.53333333333333)"/><use xlink:href="#l" transform="matrix(1,0,0,1,725,121.28888888888889) translate(88.33333333333334 48.53333333333333)"/><path d="M80 86a6 6 0 0 1 6-6h148a6 6 0 0 1 6 6v128a6 6 0 0 1-6 6H86a6 6 0 0 1-6-6z" stroke="#3a414a" fill="#fff"/><use xlink:href="#m" transform="matrix(1,0,0,1,85,85) translate(13.333333333333336 25.90277777777778)"/><use xlink:href="#n" transform="matrix(1,0,0,1,85,85) translate(72.53086419753086 25.90277777777778)"/><use xlink:href="#o" transform="matrix(1,0,0,1,85,85) translate(55 56.65833333333334)"/><use xlink:href="#p" transform="matrix(1,0,0,1,85,85) translate(75 84.59166666666667)"/><use xlink:href="#q" transform="matrix(1,0,0,1,85,85) translate(15.000000000000007 112.525)"/><path d="M240.96 150h82.2" stroke="#3a414a" fill="none"/><path d="M240.98 150.5h-.52v-1h.52z" stroke="#3a414a" stroke-width=".05" fill="#3a414a"/><path d="M337.92 150l-14.27 4.64v-9.28z" stroke="#3a414a" fill="#3a414a"/><path d="M540.96 150h162.2" stroke="#3a414a" fill="none"/><path d="M540.98 150.5h-.52v-1h.52z" stroke="#3a414a" stroke-width=".05" fill="#3a414a"/><path d="M717.92 150l-14.27 4.64v-9.28z" stroke="#3a414a" fill="#3a414a"/><path d="M940 72.96a6 6 0 0 1 6-6h208a6 6 0 0 1 6 6v140.08c-36.74-24.4-59.62-24.4-73.48-24.4-22 0-51.26 24.4-73.26 24.4-13.64 0-36.74 0-73.26-24.4z" stroke="#3a414a" fill="#fff"/><g><use xlink:href="#r" transform="matrix(1,0,0,1,945,71.96000000000001) translate(65 21.866666666666667)"/><use xlink:href="#s" transform="matrix(1,0,0,1,945,71.96000000000001) translate(118.33333333333334 21.866666666666667)"/><use xlink:href="#t" transform="matrix(1,0,0,1,945,71.96000000000001) translate(98.33333333333333 49.8)"/><use xlink:href="#t" transform="matrix(1,0,0,1,945,71.96000000000001) translate(98.33333333333333 77.73333333333333)"/><use xlink:href="#u" transform="matrix(1,0,0,1,945,71.96000000000001) translate(98.33333333333333 105.66666666666666)"/></g><path d="M880.96 150h42.16" stroke="#3a414a" fill="none"/><path d="M880.98 150.5h-.52v-1h.52z" stroke="#3a414a" stroke-width=".05" fill="#3a414a"/><path d="M937.88 150l-14.26 4.64v-9.28z" stroke="#3a414a" fill="#3a414a"/><defs><path fill="#3a414a" d="M185-189c-5-48-123-54-124 2 14 75 158 14 163 119 3 78-121 87-175 55-17-10-28-26-33-46l33-7c5 56 141 63 141-1 0-78-155-14-162-118-5-82 145-84 179-34 5 7 8 16 11 25" id="v"/><path fill="#3a414a" d="M100-194c63 0 86 42 84 106H49c0 40 14 67 53 68 26 1 43-12 49-29l28 8c-11 28-37 45-77 45C44 4 14-33 15-96c1-61 26-98 85-98zm52 81c6-60-76-77-97-28-3 7-6 17-6 28h103" id="w"/><path fill="#3a414a" d="M114-163C36-179 61-72 57 0H25l-1-190h30c1 12-1 29 2 39 6-27 23-49 58-41v29" id="x"/><path fill="#3a414a" d="M108 0H70L1-190h34L89-25l56-165h34" id="y"/><g id="a"><use transform="matrix(0.06172839506172839,0,0,0.06172839506172839,0,0)" xlink:href="#v"/><use transform="matrix(0.06172839506172839,0,0,0.06172839506172839,14.814814814814813,0)" xlink:href="#w"/><use transform="matrix(0.06172839506172839,0,0,0.06172839506172839,27.160493827160494,0)" xlink:href="#x"/><use transform="matrix(0.06172839506172839,0,0,0.06172839506172839,34.50617283950617,0)" xlink:href="#y"/><use transform="matrix(0.06172839506172839,0,0,0.06172839506172839,45.61728395061728,0)" xlink:href="#w"/><use transform="matrix(0.06172839506172839,0,0,0.06172839506172839,57.962962962962955,0)" xlink:href="#x"/></g><path fill="#3a414a" d="M160-131c35 5 61 23 61 61C221 17 115-2 30 0v-248c76 3 177-17 177 60 0 33-19 50-47 57zm-97-11c50-1 110 9 110-42 0-47-63-36-110-37v79zm0 115c55-2 124 14 124-45 0-56-70-42-124-44v89" id="z"/><path fill="#3a414a" d="M100-194c62-1 85 37 85 99 1 63-27 99-86 99S16-35 15-95c0-66 28-99 85-99zM99-20c44 1 53-31 53-75 0-43-8-75-51-75s-53 32-53 75 10 74 51 75" id="A"/><path fill="#3a414a" d="M206 0h-36l-40-164L89 0H53L-1-190h32L70-26l43-164h34l41 164 42-164h31" id="B"/><path fill="#3a414a" d="M135-143c-3-34-86-38-87 0 15 53 115 12 119 90S17 21 10-45l28-5c4 36 97 45 98 0-10-56-113-15-118-90-4-57 82-63 122-42 12 7 21 19 24 35" id="C"/><g id="b"><use transform="matrix(0.06172839506172839,0,0,0.06172839506172839,0,0)" xlink:href="#z"/><use transform="matrix(0.06172839506172839,0,0,0.06172839506172839,14.814814814814813,0)" xlink:href="#x"/><use transform="matrix(0.06172839506172839,0,0,0.06172839506172839,22.160493827160494,0)" xlink:href="#A"/><use transform="matrix(0.06172839506172839,0,0,0.06172839506172839,34.50617283950617,0)" xlink:href="#B"/><use transform="matrix(0.06172839506172839,0,0,0.06172839506172839,50.49382716049382,0)" xlink:href="#C"/><use transform="matrix(0.06172839506172839,0,0,0.06172839506172839,61.60493827160494,0)" xlink:href="#w"/><use transform="matrix(0.06172839506172839,0,0,0.06172839506172839,73.95061728395062,0)" xlink:href="#x"/></g><path fill="#3a414a" d="M24-231v-30h32v30H24zM24 0v-190h32V0H24" id="D"/><path fill="#3a414a" d="M59-47c-2 24 18 29 38 22v24C64 9 27 4 27-40v-127H5v-23h24l9-43h21v43h35v23H59v120" id="E"/><path fill="#3a414a" d="M106-169C34-169 62-67 57 0H25v-261h32l-1 103c12-21 28-36 61-36 89 0 53 116 60 194h-32v-121c2-32-8-49-39-48" id="F"/><g id="c"><use transform="matrix(0.06172839506172839,0,0,0.06172839506172839,0,0)" xlink:href="#B"/><use transform="matrix(0.06172839506172839,0,0,0.06172839506172839,15.987654320987653,0)" xlink:href="#D"/><use transform="matrix(0.06172839506172839,0,0,0.06172839506172839,20.864197530864196,0)" xlink:href="#E"/><use transform="matrix(0.06172839506172839,0,0,0.06172839506172839,27.037037037037035,0)" xlink:href="#F"/></g><path fill="#3a414a" d="M33 0v-248h34V0H33" id="G"/><path fill="#3a414a" d="M85-194c31 0 48 13 60 33l-1-100h32l1 261h-30c-2-10 0-23-3-31C134-8 116 4 85 4 32 4 16-35 15-94c0-66 23-100 70-100zm9 24c-40 0-46 34-46 75 0 40 6 74 45 74 42 0 51-32 51-76 0-42-9-74-50-73" id="H"/><path fill="#3a414a" d="M117-194c89-4 53 116 60 194h-32v-121c0-31-8-49-39-48C34-167 62-67 57 0H25l-1-190h30c1 10-1 24 2 32 11-22 29-35 61-36" id="I"/><path fill="#3a414a" d="M101-234c-31-9-42 10-38 44h38v23H63V0H32v-167H5v-23h27c-7-52 17-82 69-68v24" id="J"/><g id="d"><use transform="matrix(0.06172839506172839,0,0,0.06172839506172839,0,0)" xlink:href="#G"/><use transform="matrix(0.06172839506172839,0,0,0.06172839506172839,6.172839506172839,0)" xlink:href="#H"/><use transform="matrix(0.06172839506172839,0,0,0.06172839506172839,18.51851851851852,0)" xlink:href="#w"/><use transform="matrix(0.06172839506172839,0,0,0.06172839506172839,30.864197530864196,0)" xlink:href="#I"/><use transform="matrix(0.06172839506172839,0,0,0.06172839506172839,43.20987654320987,0)" xlink:href="#E"/><use transform="matrix(0.06172839506172839,0,0,0.06172839506172839,49.382716049382715,0)" xlink:href="#D"/><use transform="matrix(0.06172839506172839,0,0,0.06172839506172839,54.25925925925926,0)" xlink:href="#J"/><use transform="matrix(0.06172839506172839,0,0,0.06172839506172839,60.4320987654321,0)" xlink:href="#D"/><use transform="matrix(0.06172839506172839,0,0,0.06172839506172839,65.30864197530865,0)" xlink:href="#w"/><use transform="matrix(0.06172839506172839,0,0,0.06172839506172839,77.65432098765433,0)" xlink:href="#x"/></g><path fill="#3a414a" d="M553-257C553-20 345 93 203-54h-4L187 0H72v-701h147c-1 84 2 172-5 250h3c37-36 88-57 136-57 124 0 200 99 200 251zM219-141c89 66 177 37 183-113 5-145-110-170-183-88v201" id="K"/><use transform="matrix(0.022222222222222223,0,0,0.022222222222222223,0,0)" xlink:href="#K" id="e"/><path fill="#3a414a" d="M197 0v-115H63V0H30v-248h33v105h134v-105h34V0h-34" id="L"/><path fill="#3a414a" d="M141-36C126-15 110 5 73 4 37 3 15-17 15-53c-1-64 63-63 125-63 3-35-9-54-41-54-24 1-41 7-42 31l-33-3c5-37 33-52 76-52 45 0 72 20 72 64v82c-1 20 7 32 28 27v20c-31 9-61-2-59-35zM48-53c0 20 12 33 32 33 41-3 63-29 60-74-43 2-92-5-92 41" id="M"/><g id="f"><use transform="matrix(0.06172839506172839,0,0,0.06172839506172839,0,0)" xlink:href="#L"/><use transform="matrix(0.06172839506172839,0,0,0.06172839506172839,15.987654320987653,0)" xlink:href="#M"/><use transform="matrix(0.06172839506172839,0,0,0.06172839506172839,28.333333333333332,0)" xlink:href="#C"/><use transform="matrix(0.06172839506172839,0,0,0.06172839506172839,39.44444444444444,0)" xlink:href="#F"/></g><path fill="#3a414a" d="M296 12c-89 0-180-34-243-76l63-92c61 38 129 59 200 59 54 0 79-18 79-42 0-28-25-38-122-59-135-29-189-78-189-155 0-92 87-155 228-155 89 0 163 35 215 68l-66 88c-50-30-107-47-162-47-46 0-69 16-69 39 0 28 31 34 115 53 153 35 195 78 195 159 0 90-85 160-244 160" id="N"/><use transform="matrix(0.022222222222222223,0,0,0.022222222222222223,0,0)" xlink:href="#N" id="g"/><path fill="#3a414a" d="M70-394v-104h460v104H70zm0 232v-104h460v104H70" id="O"/><use transform="matrix(0.022222222222222223,0,0,0.022222222222222223,0,0)" xlink:href="#O" id="h"/><path fill="#3a414a" d="M64 0v-652h147v251h178v-251h147V0H389v-272H211V0H64" id="P"/><path fill="#3a414a" d="M224 12C124 12 61-54 61-138c0-111 92-167 327-181-5-45-39-72-106-72-48 0-95 18-151 46l-52-96c68-39 147-67 232-67 139 0 224 72 224 224V0H415l-11-56h-4c-50 38-112 68-176 68zm47-114c44 0 82-20 117-47v-82c-146 8-186 39-186 82 0 32 27 47 69 47" id="Q"/><path fill="#3a414a" d="M72 0v-701h147c0 92 2 186-8 267h3c37-38 90-74 165-74 111 0 161 77 161 202V0H393v-287c0-66-19-96-73-96-40 0-66 18-101 52V0H72" id="R"/><path fill="#3a414a" d="M392 179C262 64 181-90 181-278s81-342 211-457l82 65c-229 207-229 577 0 784" id="S"/><path fill="#3a414a" d="M300 12C169 12 47-83 47-248s122-260 253-260 253 95 253 260S431 12 300 12zm0-119c68 0 102-55 102-141s-34-141-102-141-102 55-102 141 34 141 102 141" id="T"/><path fill="#3a414a" d="M195 196c-61 0-110-14-153-34L85 57c87 42 193 40 193-81v-357H79v-115h346v466c0 121-50 226-230 226zm150-770c-57 0-98-35-98-89s41-92 98-92 98 38 98 92-41 89-98 89" id="U"/><path fill="#3a414a" d="M208 179l-82-65c229-207 229-577 0-784l82-65c130 115 211 269 211 457S338 64 208 179" id="V"/><g id="i"><use transform="matrix(0.022222222222222223,0,0,0.022222222222222223,0,0)" xlink:href="#P"/><use transform="matrix(0.022222222222222223,0,0,0.022222222222222223,13.333333333333334,0)" xlink:href="#Q"/><use transform="matrix(0.022222222222222223,0,0,0.022222222222222223,26.666666666666668,0)" xlink:href="#N"/><use transform="matrix(0.022222222222222223,0,0,0.022222222222222223,40,0)" xlink:href="#R"/><use transform="matrix(0.022222222222222223,0,0,0.022222222222222223,53.333333333333336,0)" xlink:href="#S"/><use transform="matrix(0.022222222222222223,0,0,0.022222222222222223,66.66666666666667,0)" xlink:href="#T"/><use transform="matrix(0.022222222222222223,0,0,0.022222222222222223,80,0)" xlink:href="#K"/><use transform="matrix(0.022222222222222223,0,0,0.022222222222222223,93.33333333333334,0)" xlink:href="#U"/><use transform="matrix(0.022222222222222223,0,0,0.022222222222222223,106.66666666666666,0)" xlink:href="#V"/></g><path fill="#3a414a" d="M140-251c81 0 123 46 123 126C263-53 228-8 163 1c7 30 30 48 69 40v23c-55 16-95-15-103-61C56-3 17-48 17-125c0-80 42-126 123-126zm0 227c63 0 89-41 89-101s-29-99-89-99c-61 0-89 39-89 99S79-25 140-24" id="W"/><path fill="#3a414a" d="M84 4C-5 8 30-112 23-190h32v120c0 31 7 50 39 49 72-2 45-101 50-169h31l1 190h-30c-1-10 1-25-2-33-11 22-28 36-60 37" id="X"/><path fill="#3a414a" d="M179-190L93 31C79 59 56 82 12 73V49c39 6 53-20 64-50L1-190h34L92-34l54-156h33" id="Y"/><g id="j"><use transform="matrix(0.06172839506172839,0,0,0.06172839506172839,0,0)" xlink:href="#W"/><use transform="matrix(0.06172839506172839,0,0,0.06172839506172839,17.28395061728395,0)" xlink:href="#X"/><use transform="matrix(0.06172839506172839,0,0,0.06172839506172839,29.629629629629626,0)" xlink:href="#w"/><use transform="matrix(0.06172839506172839,0,0,0.06172839506172839,41.9753086419753,0)" xlink:href="#x"/><use transform="matrix(0.06172839506172839,0,0,0.06172839506172839,49.32098765432098,0)" xlink:href="#Y"/></g><path fill="#3a414a" d="M388 12c-158 0-214-88-214-218v-175H49v-109l132-6 19-152h121v152h210v115H321v174c0 75 32 104 105 104 37 0 68-8 98-18l26 106c-44 13-96 27-162 27" id="Z"/><path fill="#3a414a" d="M219 217l-37-86c89-31 132-81 130-142-63 6-118-32-119-101 0-62 50-103 112-103 82 0 124 64 124 172 0 127-72 218-210 260" id="aa"/><g id="k"><use transform="matrix(0.022222222222222223,0,0,0.022222222222222223,0,0)" xlink:href="#S"/><use transform="matrix(0.022222222222222223,0,0,0.022222222222222223,13.333333333333334,0)" xlink:href="#Z"/><use transform="matrix(0.022222222222222223,0,0,0.022222222222222223,26.666666666666668,0)" xlink:href="#aa"/></g><g id="l"><use transform="matrix(0.022222222222222223,0,0,0.022222222222222223,0,0)" xlink:href="#N"/><use transform="matrix(0.022222222222222223,0,0,0.022222222222222223,13.333333333333334,0)" xlink:href="#V"/></g><path fill="#3a414a" d="M30 0v-248h33v221h125V0H30" id="ab"/><path fill="#3a414a" d="M96-169c-40 0-48 33-48 73s9 75 48 75c24 0 41-14 43-38l32 2c-6 37-31 61-74 61-59 0-76-41-82-99-10-93 101-131 147-64 4 7 5 14 7 22l-32 3c-4-21-16-35-41-35" id="ac"/><path fill="#3a414a" d="M24 0v-261h32V0H24" id="ad"/><g id="m"><use transform="matrix(0.06172839506172839,0,0,0.06172839506172839,0,0)" xlink:href="#ab"/><use transform="matrix(0.06172839506172839,0,0,0.06172839506172839,12.345679012345679,0)" xlink:href="#A"/><use transform="matrix(0.06172839506172839,0,0,0.06172839506172839,24.691358024691358,0)" xlink:href="#ac"/><use transform="matrix(0.06172839506172839,0,0,0.06172839506172839,35.80246913580247,0)" xlink:href="#M"/><use transform="matrix(0.06172839506172839,0,0,0.06172839506172839,48.148148148148145,0)" xlink:href="#ad"/></g><path fill="#3a414a" d="M140-251c81 0 123 46 123 126C263-46 219 4 140 4 59 4 17-45 17-125s42-126 123-126zm0 227c63 0 89-41 89-101s-29-99-89-99c-61 0-89 39-89 99S79-25 140-24" id="ae"/><path fill="#3a414a" d="M115-194c53 0 69 39 70 98 0 66-23 100-70 100C84 3 66-7 56-30L54 0H23l1-261h32v101c10-23 28-34 59-34zm-8 174c40 0 45-34 45-75 0-40-5-75-45-74-42 0-51 32-51 76 0 43 10 73 51 73" id="af"/><path fill="#3a414a" d="M24-231v-30h32v30H24zM-9 49c24 4 33-6 33-30v-209h32V24c2 40-23 58-65 49V49" id="ag"/><g id="n"><use transform="matrix(0.06172839506172839,0,0,0.06172839506172839,0,0)" xlink:href="#ae"/><use transform="matrix(0.06172839506172839,0,0,0.06172839506172839,17.28395061728395,0)" xlink:href="#af"/><use transform="matrix(0.06172839506172839,0,0,0.06172839506172839,29.629629629629626,0)" xlink:href="#ag"/><use transform="matrix(0.06172839506172839,0,0,0.06172839506172839,34.50617283950617,0)" xlink:href="#w"/><use transform="matrix(0.06172839506172839,0,0,0.06172839506172839,46.85185185185185,0)" xlink:href="#ac"/><use transform="matrix(0.06172839506172839,0,0,0.06172839506172839,57.96296296296296,0)" xlink:href="#E"/></g><g id="o"><use transform="matrix(0.022222222222222223,0,0,0.022222222222222223,0,0)" xlink:href="#T"/><use transform="matrix(0.022222222222222223,0,0,0.022222222222222223,13.333333333333334,0)" xlink:href="#K"/><use transform="matrix(0.022222222222222223,0,0,0.022222222222222223,26.666666666666668,0)" xlink:href="#U"/></g><path fill="#3a414a" d="M278 0v-381H79v-115h346V0H278zm67-574c-57 0-98-35-98-89s41-92 98-92 98 38 98 92-41 89-98 89" id="ah"/><path fill="#3a414a" d="M60 164V54h480v110H60" id="ai"/><path fill="#3a414a" d="M76 0v-701h147v405h4l182-200h161L381-294 585 0H426L296-203l-73 78V0H76" id="aj"/><path fill="#3a414a" d="M72 0v-496h120l11 66h4c43-42 97-78 171-78 112 0 162 77 162 202V0H393v-287c0-66-19-96-73-96-40 0-66 18-101 52V0H72" id="ak"/><path fill="#3a414a" d="M218-255c-22-134 138-171 138-245 0-42-32-63-74-63-41 0-72 19-102 46l-82-75c48-53 115-90 194-90 115 0 205 53 205 163 0 132-163 148-151 264H218zm68 267c-57 0-100-42-100-102 0-59 43-100 100-100s100 41 100 100c0 60-43 102-100 102" id="al"/><g id="q"><use transform="matrix(0.022222222222222223,0,0,0.022222222222222223,0,0)" xlink:href="#ah"/><use transform="matrix(0.022222222222222223,0,0,0.022222222222222223,13.333333333333334,0)" xlink:href="#N"/><use transform="matrix(0.022222222222222223,0,0,0.022222222222222223,26.666666666666668,0)" xlink:href="#ai"/><use transform="matrix(0.022222222222222223,0,0,0.022222222222222223,40,0)" xlink:href="#aj"/><use transform="matrix(0.022222222222222223,0,0,0.022222222222222223,53.333333333333336,0)" xlink:href="#Q"/><use transform="matrix(0.022222222222222223,0,0,0.022222222222222223,66.66666666666667,0)" xlink:href="#ak"/><use transform="matrix(0.022222222222222223,0,0,0.022222222222222223,80,0)" xlink:href="#T"/><use transform="matrix(0.022222222222222223,0,0,0.022222222222222223,93.33333333333334,0)" xlink:href="#ak"/><use transform="matrix(0.022222222222222223,0,0,0.022222222222222223,106.66666666666666,0)" xlink:href="#al"/></g><path fill="#3a414a" d="M433 176C294 68 208-85 208-278s86-346 225-454l45 42C344-577 282-446 282-278s62 299 196 412" id="am"/><path fill="#3a414a" d="M394 12c-142 0-188-81-188-201v-230H69v-62l140-5 11-156h68v156h239v67H288v231c0 87 29 133 123 133 46 0 82-9 117-22l18 60c-44 16-91 29-152 29" id="an"/><path fill="#3a414a" d="M220 213l-23-52c82-37 123-88 126-167-53 9-97-17-97-73 0-49 37-76 80-76 59 0 90 50 90 128 0 117-66 199-176 240" id="ao"/><g id="r"><use transform="matrix(0.022222222222222223,0,0,0.022222222222222223,0,0)" xlink:href="#am"/><use transform="matrix(0.022222222222222223,0,0,0.022222222222222223,13.333333333333334,0)" xlink:href="#an"/><use transform="matrix(0.022222222222222223,0,0,0.022222222222222223,26.666666666666668,0)" xlink:href="#ao"/></g><path fill="#3a414a" d="M310 12c-95 0-180-35-239-76l38-54c56 40 121 66 211 66 82 0 123-35 123-76 0-37-20-63-152-90-126-26-190-69-190-142 0-78 69-138 202-138 74 0 148 29 196 62l-40 53c-45-31-101-51-163-51-83 0-112 33-112 70 0 42 42 60 141 81 162 35 201 76 201 150 0 79-77 145-216 145" id="ap"/><path fill="#3a414a" d="M167 176l-45-42C256 21 318-110 318-278s-62-299-196-412l45-42c139 108 225 261 225 454S306 68 167 176" id="aq"/><g id="s"><use transform="matrix(0.022222222222222223,0,0,0.022222222222222223,0,0)" xlink:href="#ap"/><use transform="matrix(0.022222222222222223,0,0,0.022222222222222223,13.333333333333334,0)" xlink:href="#aq"/></g><path fill="#3a414a" d="M300 12c-45 0-81-34-81-84 0-51 36-85 81-85s81 34 81 85c0 50-36 84-81 84" id="ar"/><use transform="matrix(0.022222222222222223,0,0,0.022222222222222223,0,0)" xlink:href="#ar" id="t"/><use transform="matrix(0.022222222222222223,0,0,0.022222222222222223,0,0)" xlink:href="#ar" id="u"/></defs></g></svg>